<svg width="1200" height="630" viewBox="0 0 1200 630" fill="none" xmlns="http://www.w3.org/2000/svg">
<rect width="1200" height="630" fill="#1C1C1C"/>
<path d="M78.768 490.72C76.272 490.72 74.032 490.336 72.048 489.568C70.064 488.8 68.384 487.68 67.008 486.208C65.632 484.704 64.576 482.88 63.84 480.736C63.104 478.592 62.736 476.128 62.736 473.344C62.736 470.56 63.152 468.096 63.984 465.952C64.848 463.808 66.016 462 67.488 460.528C68.96 459.024 70.688 457.888 72.672 457.12C74.656 456.352 76.784 455.968 79.056 455.968C80.432 455.968 81.68 456.08 82.8 456.304C83.92 456.496 84.896 456.72 85.728 456.976C86.56 457.232 87.248 457.504 87.792 457.792C88.336 458.08 88.72 458.288 88.944 458.416L87.168 463.36C86.4 462.88 85.296 462.432 83.856 462.016C82.448 461.568 80.912 461.344 79.248 461.344C77.808 461.344 76.464 461.6 75.216 462.112C73.968 462.592 72.88 463.328 71.952 464.32C71.056 465.312 70.352 466.56 69.84 468.064C69.328 469.568 69.072 471.312 69.072 473.296C69.072 475.056 69.264 476.672 69.648 478.144C70.064 479.616 70.688 480.896 71.52 481.984C72.352 483.04 73.408 483.872 74.688 484.48C75.968 485.056 77.504 485.344 79.296 485.344C81.44 485.344 83.184 485.136 84.528 484.72C85.872 484.272 86.912 483.856 87.648 483.472L89.28 488.416C88.896 488.672 88.368 488.928 87.696 489.184C87.056 489.44 86.288 489.696 85.392 489.952C84.496 490.176 83.488 490.352 82.368 490.48C81.248 490.64 80.048 490.72 78.768 490.72ZM116.4 477.424C116.4 479.408 116.112 481.216 115.536 482.848C114.96 484.48 114.144 485.872 113.088 487.024C112.032 488.176 110.752 489.072 109.248 489.712C107.776 490.352 106.144 490.672 104.352 490.672C102.56 490.672 100.928 490.352 99.456 489.712C97.984 489.072 96.72 488.176 95.664 487.024C94.608 485.872 93.776 484.48 93.168 482.848C92.592 481.216 92.304 479.408 92.304 477.424C92.304 475.44 92.592 473.648 93.168 472.048C93.776 470.416 94.608 469.024 95.664 467.872C96.752 466.72 98.032 465.84 99.504 465.232C100.976 464.592 102.592 464.272 104.352 464.272C106.112 464.272 107.728 464.592 109.2 465.232C110.704 465.84 111.984 466.72 113.04 467.872C114.096 469.024 114.912 470.416 115.488 472.048C116.096 473.648 116.4 475.44 116.4 477.424ZM110.448 477.424C110.448 474.928 109.904 472.96 108.816 471.52C107.76 470.048 106.272 469.312 104.352 469.312C102.432 469.312 100.928 470.048 99.84 471.52C98.784 472.96 98.256 474.928 98.256 477.424C98.256 479.952 98.784 481.952 99.84 483.424C100.928 484.896 102.432 485.632 104.352 485.632C106.272 485.632 107.76 484.896 108.816 483.424C109.904 481.952 110.448 479.952 110.448 477.424ZM136.688 476.8C136.688 474.176 136.352 472.288 135.68 471.136C135.04 469.952 133.824 469.36 132.032 469.36C131.392 469.36 130.688 469.408 129.92 469.504C129.152 469.6 128.576 469.68 128.192 469.744V490H122.384V465.712C123.504 465.392 124.96 465.088 126.752 464.8C128.576 464.512 130.496 464.368 132.512 464.368C134.24 464.368 135.648 464.592 136.736 465.04C137.856 465.488 138.784 466.08 139.52 466.816C139.872 466.56 140.32 466.288 140.864 466C141.408 465.712 142.016 465.456 142.688 465.232C143.36 464.976 144.064 464.768 144.8 464.608C145.568 464.448 146.336 464.368 147.104 464.368C149.056 464.368 150.656 464.656 151.904 465.232C153.184 465.776 154.176 466.56 154.88 467.584C155.616 468.576 156.112 469.792 156.368 471.232C156.656 472.64 156.8 474.192 156.8 475.888V490H150.992V476.8C150.992 474.176 150.672 472.288 150.032 471.136C149.392 469.952 148.16 469.36 146.336 469.36C145.408 469.36 144.528 469.52 143.696 469.84C142.864 470.128 142.24 470.416 141.824 470.704C142.08 471.504 142.256 472.352 142.352 473.248C142.448 474.144 142.496 475.104 142.496 476.128V490H136.688V476.8ZM178.219 476.8C178.219 474.176 177.883 472.288 177.211 471.136C176.571 469.952 175.355 469.36 173.563 469.36C172.923 469.36 172.219 469.408 171.451 469.504C170.683 469.6 170.107 469.68 169.723 469.744V490H163.915V465.712C165.035 465.392 166.491 465.088 168.283 464.8C170.107 464.512 172.027 464.368 174.043 464.368C175.771 464.368 177.179 464.592 178.267 465.04C179.387 465.488 180.315 466.08 181.051 466.816C181.403 466.56 181.851 466.288 182.395 466C182.939 465.712 183.547 465.456 184.219 465.232C184.891 464.976 185.595 464.768 186.331 464.608C187.099 464.448 187.867 464.368 188.635 464.368C190.587 464.368 192.187 464.656 193.435 465.232C194.715 465.776 195.707 466.56 196.411 467.584C197.147 468.576 197.643 469.792 197.899 471.232C198.187 472.64 198.331 474.192 198.331 475.888V490H192.523V476.8C192.523 474.176 192.203 472.288 191.563 471.136C190.923 469.952 189.691 469.36 187.867 469.36C186.939 469.36 186.059 469.52 185.227 469.84C184.395 470.128 183.771 470.416 183.355 470.704C183.611 471.504 183.787 472.352 183.883 473.248C183.979 474.144 184.027 475.104 184.027 476.128V490H178.219V476.8ZM214.278 485.92C216.07 485.92 217.43 485.824 218.358 485.632V479.2C218.038 479.104 217.574 479.008 216.966 478.912C216.358 478.816 215.686 478.768 214.95 478.768C214.31 478.768 213.654 478.816 212.982 478.912C212.342 479.008 211.75 479.184 211.206 479.44C210.694 479.696 210.278 480.064 209.958 480.544C209.638 480.992 209.478 481.568 209.478 482.272C209.478 483.648 209.91 484.608 210.774 485.152C211.638 485.664 212.806 485.92 214.278 485.92ZM213.798 464.272C215.718 464.272 217.334 464.512 218.646 464.992C219.958 465.472 220.998 466.144 221.766 467.008C222.566 467.872 223.126 468.928 223.446 470.176C223.798 471.392 223.974 472.736 223.974 474.208V489.424C223.078 489.616 221.718 489.84 219.894 490.096C218.102 490.384 216.07 490.528 213.798 490.528C212.294 490.528 210.918 490.384 209.67 490.096C208.422 489.808 207.35 489.344 206.454 488.704C205.59 488.064 204.902 487.232 204.39 486.208C203.91 485.184 203.67 483.92 203.67 482.416C203.67 480.976 203.942 479.76 204.486 478.768C205.062 477.776 205.83 476.976 206.79 476.368C207.75 475.728 208.854 475.28 210.102 475.024C211.382 474.736 212.71 474.592 214.086 474.592C214.726 474.592 215.398 474.64 216.102 474.736C216.806 474.8 217.558 474.928 218.358 475.12V474.16C218.358 473.488 218.278 472.848 218.118 472.24C217.958 471.632 217.67 471.104 217.254 470.656C216.87 470.176 216.342 469.808 215.67 469.552C215.03 469.296 214.214 469.168 213.222 469.168C211.878 469.168 210.646 469.264 209.526 469.456C208.406 469.648 207.494 469.872 206.79 470.128L206.07 465.424C206.806 465.168 207.878 464.912 209.286 464.656C210.694 464.4 212.198 464.272 213.798 464.272Z" fill="white"/>
<path d="M86.064 562C85.616 560.688 85.152 559.392 84.672 558.112C84.192 556.832 83.728 555.52 83.28 554.176H69.264C68.816 555.52 68.352 556.848 67.872 558.16C67.424 559.44 66.976 560.72 66.528 562H60.24C61.488 558.448 62.672 555.168 63.792 552.16C64.912 549.152 66 546.304 67.056 543.616C68.144 540.928 69.216 538.368 70.272 535.936C71.328 533.504 72.416 531.104 73.536 528.736H79.248C80.368 531.104 81.456 533.504 82.512 535.936C83.568 538.368 84.624 540.928 85.68 543.616C86.768 546.304 87.872 549.152 88.992 552.16C90.144 555.168 91.344 558.448 92.592 562H86.064ZM76.272 535.168C75.536 536.864 74.688 538.928 73.728 541.36C72.8 543.792 71.824 546.432 70.8 549.28H81.744C80.72 546.432 79.728 543.776 78.768 541.312C77.808 538.848 76.976 536.8 76.272 535.168ZM96.5085 537.712C97.6285 537.392 99.0845 537.088 100.877 536.8C102.669 536.512 104.653 536.368 106.829 536.368C108.877 536.368 110.589 536.656 111.965 537.232C113.341 537.776 114.429 538.56 115.229 539.584C116.061 540.576 116.637 541.792 116.957 543.232C117.309 544.64 117.484 546.192 117.484 547.888V562H111.677V548.8C111.677 547.456 111.581 546.32 111.389 545.392C111.229 544.432 110.941 543.664 110.525 543.088C110.141 542.48 109.597 542.048 108.893 541.792C108.221 541.504 107.389 541.36 106.397 541.36C105.661 541.36 104.893 541.408 104.093 541.504C103.293 541.6 102.701 541.68 102.317 541.744V562H96.5085V537.712ZM158.494 549.424C158.494 551.408 158.206 553.216 157.63 554.848C157.054 556.48 156.238 557.872 155.182 559.024C154.126 560.176 152.846 561.072 151.342 561.712C149.87 562.352 148.238 562.672 146.446 562.672C144.654 562.672 143.022 562.352 141.55 561.712C140.078 561.072 138.814 560.176 137.758 559.024C136.702 557.872 135.87 556.48 135.262 554.848C134.686 553.216 134.398 551.408 134.398 549.424C134.398 547.44 134.686 545.648 135.262 544.048C135.87 542.416 136.702 541.024 137.758 539.872C138.846 538.72 140.126 537.84 141.598 537.232C143.07 536.592 144.686 536.272 146.446 536.272C148.206 536.272 149.822 536.592 151.294 537.232C152.798 537.84 154.078 538.72 155.134 539.872C156.19 541.024 157.006 542.416 157.582 544.048C158.19 545.648 158.494 547.44 158.494 549.424ZM152.542 549.424C152.542 546.928 151.998 544.96 150.91 543.52C149.854 542.048 148.366 541.312 146.446 541.312C144.526 541.312 143.022 542.048 141.934 543.52C140.878 544.96 140.35 546.928 140.35 549.424C140.35 551.952 140.878 553.952 141.934 555.424C143.022 556.896 144.526 557.632 146.446 557.632C148.366 557.632 149.854 556.896 150.91 555.424C151.998 553.952 152.542 551.952 152.542 549.424ZM181.133 549.568C181.133 546.976 180.541 544.96 179.357 543.52C178.205 542.08 176.333 541.36 173.741 541.36C173.197 541.36 172.621 541.392 172.013 541.456C171.437 541.488 170.861 541.584 170.285 541.744V556.096C170.797 556.448 171.469 556.784 172.301 557.104C173.165 557.392 174.077 557.536 175.037 557.536C177.149 557.536 178.685 556.816 179.645 555.376C180.637 553.936 181.133 552 181.133 549.568ZM187.085 549.472C187.085 551.392 186.829 553.152 186.317 554.752C185.837 556.352 185.133 557.728 184.205 558.88C183.277 560.032 182.109 560.928 180.701 561.568C179.325 562.208 177.757 562.528 175.997 562.528C174.813 562.528 173.725 562.384 172.733 562.096C171.741 561.808 170.925 561.488 170.285 561.136V570.88H164.477V537.712C165.661 537.392 167.117 537.088 168.845 536.8C170.573 536.512 172.397 536.368 174.317 536.368C176.301 536.368 178.077 536.672 179.645 537.28C181.213 537.888 182.541 538.768 183.629 539.92C184.749 541.04 185.597 542.416 186.173 544.048C186.781 545.648 187.085 547.456 187.085 549.472ZM191.679 549.568C191.679 547.36 191.999 545.424 192.639 543.76C193.311 542.096 194.191 540.72 195.279 539.632C196.367 538.512 197.615 537.68 199.023 537.136C200.431 536.56 201.871 536.272 203.343 536.272C206.799 536.272 209.487 537.344 211.407 539.488C213.359 541.632 214.335 544.832 214.335 549.088C214.335 549.408 214.319 549.776 214.287 550.192C214.287 550.576 214.271 550.928 214.239 551.248H197.679C197.839 553.264 198.543 554.832 199.791 555.952C201.071 557.04 202.911 557.584 205.311 557.584C206.719 557.584 207.999 557.456 209.151 557.2C210.335 556.944 211.263 556.672 211.935 556.384L212.703 561.136C212.383 561.296 211.935 561.472 211.359 561.664C210.815 561.824 210.175 561.968 209.439 562.096C208.735 562.256 207.967 562.384 207.135 562.48C206.303 562.576 205.455 562.624 204.591 562.624C202.383 562.624 200.463 562.304 198.831 561.664C197.199 560.992 195.855 560.08 194.799 558.928C193.743 557.744 192.959 556.368 192.447 554.8C191.935 553.2 191.679 551.456 191.679 549.568ZM208.527 546.976C208.527 546.176 208.415 545.424 208.191 544.72C207.967 543.984 207.631 543.36 207.183 542.848C206.767 542.304 206.239 541.888 205.599 541.6C204.991 541.28 204.255 541.12 203.391 541.12C202.495 541.12 201.711 541.296 201.039 541.648C200.367 541.968 199.791 542.4 199.311 542.944C198.863 543.488 198.511 544.112 198.255 544.816C197.999 545.52 197.823 546.24 197.727 546.976H208.527ZM220.493 537.712C221.613 537.392 223.069 537.088 224.861 536.8C226.653 536.512 228.637 536.368 230.813 536.368C232.861 536.368 234.573 536.656 235.949 537.232C237.325 537.776 238.413 538.56 239.213 539.584C240.045 540.576 240.621 541.792 240.941 543.232C241.293 544.64 241.469 546.192 241.469 547.888V562H235.661V548.8C235.661 547.456 235.565 546.32 235.373 545.392C235.213 544.432 234.925 543.664 234.509 543.088C234.125 542.48 233.581 542.048 232.877 541.792C232.205 541.504 231.373 541.36 230.381 541.36C229.645 541.36 228.877 541.408 228.077 541.504C227.277 541.6 226.685 541.68 226.301 541.744V562H220.493V537.712ZM266.062 557.824C267.598 557.824 268.718 557.648 269.422 557.296C270.126 556.912 270.478 556.272 270.478 555.376C270.478 554.544 270.094 553.856 269.326 553.312C268.59 552.768 267.358 552.176 265.63 551.536C264.574 551.152 263.598 550.752 262.702 550.336C261.838 549.888 261.086 549.376 260.446 548.8C259.806 548.224 259.294 547.536 258.91 546.736C258.558 545.904 258.382 544.896 258.382 543.712C258.382 541.408 259.23 539.6 260.926 538.288C262.622 536.944 264.926 536.272 267.838 536.272C269.31 536.272 270.718 536.416 272.062 536.704C273.406 536.96 274.414 537.216 275.086 537.472L274.03 542.176C273.39 541.888 272.574 541.632 271.582 541.408C270.59 541.152 269.438 541.024 268.126 541.024C266.942 541.024 265.982 541.232 265.246 541.648C264.51 542.032 264.142 542.64 264.142 543.472C264.142 543.888 264.206 544.256 264.334 544.576C264.494 544.896 264.75 545.2 265.102 545.488C265.454 545.744 265.918 546.016 266.494 546.304C267.07 546.56 267.774 546.832 268.606 547.12C269.982 547.632 271.15 548.144 272.11 548.656C273.07 549.136 273.854 549.696 274.462 550.336C275.102 550.944 275.566 551.648 275.854 552.448C276.142 553.248 276.286 554.208 276.286 555.328C276.286 557.728 275.39 559.552 273.598 560.8C271.838 562.016 269.31 562.624 266.014 562.624C263.806 562.624 262.03 562.432 260.686 562.048C259.342 561.696 258.398 561.408 257.854 561.184L258.862 556.336C259.726 556.688 260.75 557.024 261.934 557.344C263.15 557.664 264.526 557.824 266.062 557.824ZM304.416 549.424C304.416 551.408 304.128 553.216 303.552 554.848C302.976 556.48 302.16 557.872 301.104 559.024C300.048 560.176 298.768 561.072 297.264 561.712C295.792 562.352 294.16 562.672 292.368 562.672C290.576 562.672 288.944 562.352 287.472 561.712C286 561.072 284.736 560.176 283.68 559.024C282.624 557.872 281.792 556.48 281.184 554.848C280.608 553.216 280.32 551.408 280.32 549.424C280.32 547.44 280.608 545.648 281.184 544.048C281.792 542.416 282.624 541.024 283.68 539.872C284.768 538.72 286.048 537.84 287.52 537.232C288.992 536.592 290.608 536.272 292.368 536.272C294.128 536.272 295.744 536.592 297.216 537.232C298.72 537.84 300 538.72 301.056 539.872C302.112 541.024 302.928 542.416 303.504 544.048C304.112 545.648 304.416 547.44 304.416 549.424ZM298.464 549.424C298.464 546.928 297.92 544.96 296.832 543.52C295.776 542.048 294.288 541.312 292.368 541.312C290.448 541.312 288.944 542.048 287.856 543.52C286.8 544.96 286.272 546.928 286.272 549.424C286.272 551.952 286.8 553.952 287.856 555.424C288.944 556.896 290.448 557.632 292.368 557.632C294.288 557.632 295.776 556.896 296.832 555.424C297.92 553.952 298.464 551.952 298.464 549.424ZM330.991 561.232C329.871 561.52 328.415 561.808 326.623 562.096C324.831 562.416 322.863 562.576 320.719 562.576C318.703 562.576 317.007 562.288 315.631 561.712C314.287 561.136 313.199 560.336 312.367 559.312C311.567 558.288 310.991 557.072 310.639 555.664C310.287 554.224 310.111 552.656 310.111 550.96V536.896H315.919V550.048C315.919 552.736 316.303 554.656 317.071 555.808C317.871 556.96 319.247 557.536 321.199 557.536C321.903 557.536 322.639 557.504 323.407 557.44C324.207 557.376 324.799 557.296 325.183 557.2V536.896H330.991V561.232ZM352.688 542.128C352.208 541.968 351.536 541.808 350.672 541.648C349.84 541.456 348.864 541.36 347.744 541.36C347.104 541.36 346.416 541.424 345.68 541.552C344.976 541.68 344.48 541.792 344.192 541.888V562H338.384V538.096C339.504 537.68 340.896 537.296 342.56 536.944C344.256 536.56 346.128 536.368 348.176 536.368C348.56 536.368 349.008 536.4 349.52 536.464C350.032 536.496 350.544 536.56 351.056 536.656C351.568 536.72 352.064 536.816 352.544 536.944C353.024 537.04 353.408 537.136 353.696 537.232L352.688 542.128ZM356.351 549.472C356.351 547.616 356.639 545.888 357.215 544.288C357.791 542.656 358.607 541.248 359.663 540.064C360.751 538.88 362.063 537.952 363.599 537.28C365.135 536.608 366.863 536.272 368.783 536.272C371.151 536.272 373.391 536.704 375.503 537.568L374.255 542.32C373.583 542.032 372.815 541.792 371.951 541.6C371.119 541.408 370.223 541.312 369.263 541.312C366.991 541.312 365.263 542.032 364.079 543.472C362.895 544.88 362.303 546.88 362.303 549.472C362.303 551.968 362.863 553.952 363.983 555.424C365.103 556.864 366.991 557.584 369.647 557.584C370.639 557.584 371.615 557.488 372.575 557.296C373.535 557.104 374.367 556.864 375.071 556.576L375.887 561.376C375.247 561.696 374.271 561.984 372.959 562.24C371.679 562.496 370.351 562.624 368.975 562.624C366.831 562.624 364.959 562.304 363.359 561.664C361.791 560.992 360.479 560.08 359.423 558.928C358.399 557.744 357.631 556.352 357.119 554.752C356.607 553.12 356.351 551.36 356.351 549.472ZM378.992 549.568C378.992 547.36 379.312 545.424 379.952 543.76C380.624 542.096 381.504 540.72 382.592 539.632C383.68 538.512 384.928 537.68 386.336 537.136C387.744 536.56 389.184 536.272 390.656 536.272C394.112 536.272 396.8 537.344 398.72 539.488C400.672 541.632 401.648 544.832 401.648 549.088C401.648 549.408 401.632 549.776 401.6 550.192C401.6 550.576 401.584 550.928 401.552 551.248H384.992C385.152 553.264 385.856 554.832 387.104 555.952C388.384 557.04 390.224 557.584 392.624 557.584C394.032 557.584 395.312 557.456 396.464 557.2C397.648 556.944 398.576 556.672 399.248 556.384L400.016 561.136C399.696 561.296 399.248 561.472 398.672 561.664C398.128 561.824 397.488 561.968 396.752 562.096C396.048 562.256 395.28 562.384 394.448 562.48C393.616 562.576 392.768 562.624 391.904 562.624C389.696 562.624 387.776 562.304 386.144 561.664C384.512 560.992 383.168 560.08 382.112 558.928C381.056 557.744 380.272 556.368 379.76 554.8C379.248 553.2 378.992 551.456 378.992 549.568ZM395.84 546.976C395.84 546.176 395.728 545.424 395.504 544.72C395.28 543.984 394.944 543.36 394.496 542.848C394.08 542.304 393.552 541.888 392.912 541.6C392.304 541.28 391.568 541.12 390.704 541.12C389.808 541.12 389.024 541.296 388.352 541.648C387.68 541.968 387.104 542.4 386.624 542.944C386.176 543.488 385.824 544.112 385.568 544.816C385.312 545.52 385.136 546.24 385.04 546.976H395.84ZM435.665 549.376C435.665 546.912 435.169 544.96 434.177 543.52C433.217 542.08 431.681 541.36 429.569 541.36C428.609 541.36 427.697 541.504 426.833 541.792C426.001 542.08 425.329 542.4 424.817 542.752V557.2C425.233 557.296 425.761 557.392 426.401 557.488C427.073 557.552 427.873 557.584 428.801 557.584C430.945 557.584 432.625 556.864 433.841 555.424C435.057 553.952 435.665 551.936 435.665 549.376ZM441.617 549.472C441.617 551.488 441.313 553.312 440.705 554.944C440.129 556.544 439.281 557.92 438.161 559.072C437.073 560.224 435.745 561.104 434.177 561.712C432.609 562.32 430.833 562.624 428.849 562.624C426.929 562.624 425.089 562.48 423.329 562.192C421.601 561.904 420.161 561.584 419.009 561.232V525.712L424.817 524.752V537.76C425.489 537.408 426.305 537.088 427.265 536.8C428.257 536.512 429.345 536.368 430.529 536.368C432.289 536.368 433.857 536.688 435.233 537.328C436.641 537.936 437.809 538.816 438.737 539.968C439.665 541.12 440.369 542.512 440.849 544.144C441.361 545.744 441.617 547.52 441.617 549.472ZM456.338 562.48C454.61 562.448 453.17 562.256 452.018 561.904C450.898 561.552 450.002 561.056 449.33 560.416C448.658 559.744 448.178 558.928 447.89 557.968C447.634 556.976 447.506 555.856 447.506 554.608V525.712L453.314 524.752V553.504C453.314 554.208 453.362 554.8 453.458 555.28C453.586 555.76 453.794 556.176 454.082 556.528C454.37 556.848 454.754 557.104 455.234 557.296C455.746 557.456 456.386 557.584 457.154 557.68L456.338 562.48ZM484.556 549.424C484.556 551.408 484.268 553.216 483.692 554.848C483.116 556.48 482.3 557.872 481.244 559.024C480.188 560.176 478.908 561.072 477.404 561.712C475.932 562.352 474.3 562.672 472.508 562.672C470.716 562.672 469.084 562.352 467.612 561.712C466.14 561.072 464.876 560.176 463.82 559.024C462.764 557.872 461.932 556.48 461.324 554.848C460.748 553.216 460.46 551.408 460.46 549.424C460.46 547.44 460.748 545.648 461.324 544.048C461.932 542.416 462.764 541.024 463.82 539.872C464.908 538.72 466.188 537.84 467.66 537.232C469.132 536.592 470.748 536.272 472.508 536.272C474.268 536.272 475.884 536.592 477.356 537.232C478.86 537.84 480.14 538.72 481.196 539.872C482.252 541.024 483.068 542.416 483.644 544.048C484.252 545.648 484.556 547.44 484.556 549.424ZM478.604 549.424C478.604 546.928 478.06 544.96 476.972 543.52C475.916 542.048 474.428 541.312 472.508 541.312C470.588 541.312 469.084 542.048 467.996 543.52C466.94 544.96 466.412 546.928 466.412 549.424C466.412 551.952 466.94 553.952 467.996 555.424C469.084 556.896 470.588 557.632 472.508 557.632C474.428 557.632 475.916 556.896 476.972 555.424C478.06 553.952 478.604 551.952 478.604 549.424ZM495.1 548.8C495.1 551.264 495.628 553.072 496.684 554.224C497.772 555.344 499.164 555.904 500.86 555.904C501.788 555.904 502.652 555.776 503.452 555.52C504.284 555.264 504.956 554.96 505.468 554.608V541.6C505.052 541.504 504.54 541.424 503.932 541.36C503.324 541.264 502.556 541.216 501.628 541.216C499.516 541.216 497.9 541.92 496.78 543.328C495.66 544.704 495.1 546.528 495.1 548.8ZM511.276 559.456C511.276 563.456 510.252 566.384 508.204 568.24C506.188 570.096 503.084 571.024 498.892 571.024C497.356 571.024 495.852 570.896 494.38 570.64C492.94 570.384 491.628 570.048 490.444 569.632L491.5 564.688C492.492 565.104 493.612 565.44 494.86 565.696C496.14 565.952 497.516 566.08 498.988 566.08C501.324 566.08 502.988 565.6 503.98 564.64C504.972 563.68 505.468 562.256 505.468 560.368V559.408C504.892 559.696 504.124 559.984 503.164 560.272C502.236 560.56 501.164 560.704 499.948 560.704C498.348 560.704 496.876 560.448 495.532 559.936C494.22 559.424 493.084 558.672 492.124 557.68C491.196 556.688 490.46 555.456 489.916 553.984C489.404 552.48 489.148 550.752 489.148 548.8C489.148 546.976 489.42 545.296 489.964 543.76C490.54 542.224 491.356 540.912 492.412 539.824C493.5 538.736 494.812 537.888 496.348 537.28C497.884 536.672 499.628 536.368 501.58 536.368C503.468 536.368 505.26 536.512 506.956 536.8C508.652 537.088 510.092 537.392 511.276 537.712V559.456ZM523.225 548.8C523.225 551.264 523.753 553.072 524.809 554.224C525.897 555.344 527.289 555.904 528.985 555.904C529.913 555.904 530.777 555.776 531.577 555.52C532.409 555.264 533.081 554.96 533.593 554.608V541.6C533.177 541.504 532.665 541.424 532.057 541.36C531.449 541.264 530.681 541.216 529.753 541.216C527.641 541.216 526.025 541.92 524.905 543.328C523.785 544.704 523.225 546.528 523.225 548.8ZM539.401 559.456C539.401 563.456 538.377 566.384 536.329 568.24C534.313 570.096 531.209 571.024 527.017 571.024C525.481 571.024 523.977 570.896 522.505 570.64C521.065 570.384 519.753 570.048 518.569 569.632L519.625 564.688C520.617 565.104 521.737 565.44 522.985 565.696C524.265 565.952 525.641 566.08 527.113 566.08C529.449 566.08 531.113 565.6 532.105 564.64C533.097 563.68 533.593 562.256 533.593 560.368V559.408C533.017 559.696 532.249 559.984 531.289 560.272C530.361 560.56 529.289 560.704 528.073 560.704C526.473 560.704 525.001 560.448 523.657 559.936C522.345 559.424 521.209 558.672 520.249 557.68C519.321 556.688 518.585 555.456 518.041 553.984C517.529 552.48 517.273 550.752 517.273 548.8C517.273 546.976 517.545 545.296 518.089 543.76C518.665 542.224 519.481 540.912 520.537 539.824C521.625 538.736 522.937 537.888 524.473 537.28C526.009 536.672 527.753 536.368 529.705 536.368C531.593 536.368 533.385 536.512 535.081 536.8C536.777 537.088 538.217 537.392 539.401 537.712V559.456ZM552.646 562H546.838V536.896H552.646V562ZM553.27 529.552C553.27 530.64 552.918 531.504 552.214 532.144C551.51 532.784 550.678 533.104 549.718 533.104C548.726 533.104 547.878 532.784 547.174 532.144C546.47 531.504 546.118 530.64 546.118 529.552C546.118 528.432 546.47 527.552 547.174 526.912C547.878 526.272 548.726 525.952 549.718 525.952C550.678 525.952 551.51 526.272 552.214 526.912C552.918 527.552 553.27 528.432 553.27 529.552ZM560.055 537.712C561.175 537.392 562.631 537.088 564.423 536.8C566.215 536.512 568.199 536.368 570.375 536.368C572.423 536.368 574.135 536.656 575.511 537.232C576.887 537.776 577.975 538.56 578.775 539.584C579.607 540.576 580.183 541.792 580.503 543.232C580.855 544.64 581.031 546.192 581.031 547.888V562H575.223V548.8C575.223 547.456 575.127 546.32 574.935 545.392C574.775 544.432 574.487 543.664 574.071 543.088C573.687 542.48 573.143 542.048 572.439 541.792C571.767 541.504 570.935 541.36 569.943 541.36C569.207 541.36 568.439 541.408 567.639 541.504C566.839 541.6 566.247 541.68 565.863 541.744V562H560.055V537.712ZM592.694 548.8C592.694 551.264 593.222 553.072 594.278 554.224C595.366 555.344 596.758 555.904 598.454 555.904C599.382 555.904 600.246 555.776 601.046 555.52C601.878 555.264 602.55 554.96 603.062 554.608V541.6C602.646 541.504 602.134 541.424 601.526 541.36C600.918 541.264 600.15 541.216 599.222 541.216C597.11 541.216 595.494 541.92 594.374 543.328C593.254 544.704 592.694 546.528 592.694 548.8ZM608.87 559.456C608.87 563.456 607.846 566.384 605.798 568.24C603.782 570.096 600.678 571.024 596.486 571.024C594.95 571.024 593.446 570.896 591.974 570.64C590.534 570.384 589.222 570.048 588.038 569.632L589.094 564.688C590.086 565.104 591.206 565.44 592.454 565.696C593.734 565.952 595.11 566.08 596.582 566.08C598.918 566.08 600.582 565.6 601.574 564.64C602.566 563.68 603.062 562.256 603.062 560.368V559.408C602.486 559.696 601.718 559.984 600.758 560.272C599.83 560.56 598.758 560.704 597.542 560.704C595.942 560.704 594.47 560.448 593.126 559.936C591.814 559.424 590.678 558.672 589.718 557.68C588.79 556.688 588.054 555.456 587.51 553.984C586.998 552.48 586.742 550.752 586.742 548.8C586.742 546.976 587.014 545.296 587.558 543.76C588.134 542.224 588.95 540.912 590.006 539.824C591.094 538.736 592.406 537.888 593.942 537.28C595.478 536.672 597.222 536.368 599.174 536.368C601.062 536.368 602.854 536.512 604.55 536.8C606.246 537.088 607.686 537.392 608.87 537.712V559.456ZM644.118 549.568C644.118 546.976 643.526 544.96 642.342 543.52C641.19 542.08 639.318 541.36 636.726 541.36C636.182 541.36 635.606 541.392 634.998 541.456C634.422 541.488 633.846 541.584 633.27 541.744V556.096C633.782 556.448 634.454 556.784 635.286 557.104C636.15 557.392 637.062 557.536 638.022 557.536C640.134 557.536 641.67 556.816 642.63 555.376C643.622 553.936 644.118 552 644.118 549.568ZM650.07 549.472C650.07 551.392 649.814 553.152 649.302 554.752C648.822 556.352 648.118 557.728 647.19 558.88C646.262 560.032 645.094 560.928 643.686 561.568C642.31 562.208 640.742 562.528 638.982 562.528C637.798 562.528 636.71 562.384 635.718 562.096C634.726 561.808 633.91 561.488 633.27 561.136V570.88H627.462V537.712C628.646 537.392 630.102 537.088 631.83 536.8C633.558 536.512 635.382 536.368 637.302 536.368C639.286 536.368 641.062 536.672 642.63 537.28C644.198 537.888 645.526 538.768 646.614 539.92C647.734 541.04 648.582 542.416 649.158 544.048C649.766 545.648 650.07 547.456 650.07 549.472ZM664.791 562.48C663.063 562.448 661.623 562.256 660.471 561.904C659.351 561.552 658.455 561.056 657.783 560.416C657.111 559.744 656.631 558.928 656.343 557.968C656.087 556.976 655.959 555.856 655.959 554.608V525.712L661.767 524.752V553.504C661.767 554.208 661.815 554.8 661.911 555.28C662.039 555.76 662.247 556.176 662.535 556.528C662.823 556.848 663.207 557.104 663.687 557.296C664.199 557.456 664.839 557.584 665.607 557.68L664.791 562.48ZM679.137 557.92C680.929 557.92 682.289 557.824 683.217 557.632V551.2C682.897 551.104 682.433 551.008 681.825 550.912C681.217 550.816 680.545 550.768 679.809 550.768C679.169 550.768 678.513 550.816 677.841 550.912C677.201 551.008 676.609 551.184 676.065 551.44C675.553 551.696 675.137 552.064 674.817 552.544C674.497 552.992 674.337 553.568 674.337 554.272C674.337 555.648 674.769 556.608 675.633 557.152C676.497 557.664 677.665 557.92 679.137 557.92ZM678.657 536.272C680.577 536.272 682.193 536.512 683.505 536.992C684.817 537.472 685.857 538.144 686.625 539.008C687.425 539.872 687.985 540.928 688.305 542.176C688.657 543.392 688.833 544.736 688.833 546.208V561.424C687.937 561.616 686.577 561.84 684.753 562.096C682.961 562.384 680.929 562.528 678.657 562.528C677.153 562.528 675.777 562.384 674.529 562.096C673.281 561.808 672.209 561.344 671.313 560.704C670.449 560.064 669.761 559.232 669.249 558.208C668.769 557.184 668.529 555.92 668.529 554.416C668.529 552.976 668.801 551.76 669.345 550.768C669.921 549.776 670.689 548.976 671.649 548.368C672.609 547.728 673.713 547.28 674.961 547.024C676.241 546.736 677.569 546.592 678.945 546.592C679.585 546.592 680.257 546.64 680.961 546.736C681.665 546.8 682.417 546.928 683.217 547.12V546.16C683.217 545.488 683.137 544.848 682.977 544.24C682.817 543.632 682.529 543.104 682.113 542.656C681.729 542.176 681.201 541.808 680.529 541.552C679.889 541.296 679.073 541.168 678.081 541.168C676.737 541.168 675.505 541.264 674.385 541.456C673.265 541.648 672.353 541.872 671.649 542.128L670.929 537.424C671.665 537.168 672.737 536.912 674.145 536.656C675.553 536.4 677.057 536.272 678.657 536.272ZM695.658 530.272L701.466 529.312V536.896H710.394V541.744H701.466V551.968C701.466 553.984 701.786 555.424 702.426 556.288C703.066 557.152 704.154 557.584 705.69 557.584C706.746 557.584 707.674 557.472 708.474 557.248C709.306 557.024 709.962 556.816 710.442 556.624L711.402 561.232C710.73 561.52 709.85 561.808 708.762 562.096C707.674 562.416 706.394 562.576 704.922 562.576C703.13 562.576 701.626 562.336 700.41 561.856C699.226 561.376 698.282 560.688 697.578 559.792C696.874 558.864 696.378 557.76 696.09 556.48C695.802 555.168 695.658 553.68 695.658 552.016V530.272ZM726.233 524.752C727.577 524.752 728.761 524.88 729.785 525.136C730.809 525.36 731.577 525.568 732.089 525.76L730.985 530.56C730.441 530.304 729.801 530.096 729.065 529.936C728.361 529.776 727.593 529.696 726.761 529.696C725.833 529.696 725.049 529.84 724.409 530.128C723.769 530.384 723.257 530.752 722.873 531.232C722.489 531.712 722.217 532.304 722.057 533.008C721.897 533.68 721.817 534.416 721.817 535.216V536.896H730.937V541.744H721.817V562H716.009V535.12C716.009 531.888 716.857 529.36 718.553 527.536C720.249 525.68 722.809 524.752 726.233 524.752ZM757.463 549.424C757.463 551.408 757.175 553.216 756.599 554.848C756.023 556.48 755.207 557.872 754.151 559.024C753.095 560.176 751.815 561.072 750.311 561.712C748.839 562.352 747.207 562.672 745.415 562.672C743.623 562.672 741.991 562.352 740.519 561.712C739.047 561.072 737.783 560.176 736.727 559.024C735.671 557.872 734.839 556.48 734.23 554.848C733.655 553.216 733.367 551.408 733.367 549.424C733.367 547.44 733.655 545.648 734.23 544.048C734.839 542.416 735.671 541.024 736.727 539.872C737.815 538.72 739.095 537.84 740.567 537.232C742.039 536.592 743.655 536.272 745.415 536.272C747.175 536.272 748.791 536.592 750.263 537.232C751.767 537.84 753.047 538.72 754.103 539.872C755.159 541.024 755.975 542.416 756.551 544.048C757.159 545.648 757.463 547.44 757.463 549.424ZM751.511 549.424C751.511 546.928 750.967 544.96 749.879 543.52C748.823 542.048 747.335 541.312 745.415 541.312C743.495 541.312 741.991 542.048 740.903 543.52C739.847 544.96 739.319 546.928 739.319 549.424C739.319 551.952 739.847 553.952 740.903 555.424C741.991 556.896 743.495 557.632 745.415 557.632C747.335 557.632 748.823 556.896 749.879 555.424C750.967 553.952 751.511 551.952 751.511 549.424ZM777.75 542.128C777.27 541.968 776.598 541.808 775.734 541.648C774.902 541.456 773.926 541.36 772.806 541.36C772.166 541.36 771.478 541.424 770.742 541.552C770.038 541.68 769.542 541.792 769.254 541.888V562H763.446V538.096C764.566 537.68 765.958 537.296 767.622 536.944C769.318 536.56 771.19 536.368 773.238 536.368C773.622 536.368 774.07 536.4 774.582 536.464C775.094 536.496 775.606 536.56 776.118 536.656C776.63 536.72 777.126 536.816 777.606 536.944C778.086 537.04 778.47 537.136 778.758 537.232L777.75 542.128ZM797.109 548.8C797.109 546.176 796.773 544.288 796.101 543.136C795.461 541.952 794.245 541.36 792.453 541.36C791.813 541.36 791.109 541.408 790.341 541.504C789.573 541.6 788.997 541.68 788.613 541.744V562H782.805V537.712C783.925 537.392 785.381 537.088 787.173 536.8C788.997 536.512 790.917 536.368 792.933 536.368C794.661 536.368 796.069 536.592 797.157 537.04C798.277 537.488 799.205 538.08 799.941 538.816C800.293 538.56 800.741 538.288 801.285 538C801.829 537.712 802.437 537.456 803.109 537.232C803.781 536.976 804.485 536.768 805.221 536.608C805.989 536.448 806.757 536.368 807.525 536.368C809.477 536.368 811.077 536.656 812.325 537.232C813.605 537.776 814.597 538.56 815.301 539.584C816.037 540.576 816.533 541.792 816.789 543.232C817.077 544.64 817.221 546.192 817.221 547.888V562H811.413V548.8C811.413 546.176 811.093 544.288 810.453 543.136C809.813 541.952 808.581 541.36 806.757 541.36C805.829 541.36 804.949 541.52 804.117 541.84C803.285 542.128 802.661 542.416 802.245 542.704C802.501 543.504 802.677 544.352 802.773 545.248C802.869 546.144 802.917 547.104 802.917 548.128V562H797.109V548.8ZM830.865 558.832C830.865 559.952 830.481 560.864 829.713 561.568C828.977 562.272 828.081 562.624 827.025 562.624C825.937 562.624 825.025 562.272 824.289 561.568C823.553 560.864 823.185 559.952 823.185 558.832C823.185 557.712 823.553 556.8 824.289 556.096C825.025 555.36 825.937 554.992 827.025 554.992C828.081 554.992 828.977 555.36 829.713 556.096C830.481 556.8 830.865 557.712 830.865 558.832Z" fill="#8E8E8E"/>
<path fill-rule="evenodd" clip-rule="evenodd" d="M110 150C137.614 150 160 127.614 160 100C160 90.4635 157.33 81.5506 152.697 73.9679L118.332 108.333H101.665V91.6666L136.03 57.3016C128.448 52.6694 119.536 50 110 50C82.3858 50 60 72.3858 60 100C60 127.614 82.3858 150 110 150Z" fill="white"/>
</svg>
